<svg xmlns="http://www.w3.org/2000/svg" width="143" height="27" viewBox="0 0 143 27" fill="none"><path d="M7.18302 20.9812C11.1153 20.9812 14.2874 18.3094 14.2874 14.8219C14.2874 10.2656 10.6172 9.19687 7.99569 8.775C6.26548 8.49375 5.112 8.15625 5.112 7.0875C5.112 6.3 5.74117 5.90625 6.89465 5.90625C8.54622 5.90625 9.48997 6.66563 9.98806 7.59375L14.0252 5.42813C12.8193 2.61562 10.1978 1.125 7.10437 1.125C3.17206 1.125 0.262154 3.79687 0.262154 7.28437C0.262154 11.8125 4.14203 12.9094 6.78978 13.3313C8.38892 13.5844 9.43754 13.7531 9.43754 14.8781C9.43754 15.7781 8.46757 16.2 7.18302 16.2C5.53145 16.2 4.53526 15.6656 4.03717 14.5125L0 16.6781C1.20591 19.4906 3.82745 20.9812 7.18302 20.9812Z" fill="#171E44"></path><path d="M23.7018 10.9688C25.432 10.9688 26.0874 12.4594 26.0874 14.2313V20.5312H30.8061V13.6125C30.8061 9.47813 28.5516 6.04687 23.7018 6.04687C18.8519 6.04687 16.5974 9.47813 16.5974 13.6125V20.5312H21.3162V14.2313C21.3162 12.4594 21.9716 10.9688 23.7018 10.9688Z" fill="#171E44"></path><path d="M39.3157 20.9531C40.8362 20.9531 42.0159 20.4188 42.8548 19.4906V20.5312H47.3114V13.4719C47.3114 9.16875 44.2966 6.01875 40.1022 6.01875C36.0126 6.01875 32.8929 9.39375 32.8929 13.4719C32.8929 17.5781 35.4883 20.9531 39.3157 20.9531ZM40.1022 16.2C38.6079 16.2 37.6117 14.9625 37.6117 13.5C37.6117 12.0094 38.6079 10.7719 40.1022 10.7719C41.5964 10.7719 42.5926 12.0094 42.5926 13.5C42.5926 14.9625 41.5964 16.2 40.1022 16.2Z" fill="#171E44"></path><path d="M54.6486 27V20.1656C55.4613 20.6438 56.4313 20.9531 57.4012 20.9531C61.5695 20.9531 64.3483 17.9719 64.3483 13.4719C64.3483 9.39375 61.2287 6.04687 57.1391 6.04687C52.9446 6.04687 49.9299 9.16875 49.9299 13.4719V27H54.6486ZM57.1391 16.2C55.6448 16.2 54.6486 14.9625 54.6486 13.5C54.6486 12.0094 55.6448 10.8 57.1391 10.8C58.6334 10.8 59.6296 12.0094 59.6296 13.5C59.6296 14.9625 58.6334 16.2 57.1391 16.2Z" fill="#171E44"></path><path d="M73.6517 20.9531C77.7413 20.9531 80.8609 17.6063 80.8609 13.5281C80.8609 9.02813 78.0821 6.04687 73.9139 6.04687C72.9439 6.04687 71.9739 6.35625 71.1612 6.83437V0H66.4425V13.5281C66.4425 17.8313 69.4572 20.9531 73.6517 20.9531ZM73.6517 16.2C72.1574 16.2 71.1612 14.9906 71.1612 13.5C71.1612 12.0375 72.1574 10.8 73.6517 10.8C75.146 10.8 76.1422 12.0375 76.1422 13.5C76.1422 14.9906 75.146 16.2 73.6517 16.2Z" fill="#171E44"></path><path d="M89.64 20.9531C93.7296 20.9531 96.8493 17.5781 96.8493 13.4719C96.8493 9.39375 93.7296 6.01875 89.64 6.01875C85.5504 6.01875 82.4308 9.39375 82.4308 13.4719C82.4308 17.5781 85.5504 20.9531 89.64 20.9531ZM89.64 16.2C88.1457 16.2 87.1496 14.9625 87.1496 13.5C87.1496 12.0094 88.1457 10.7719 89.64 10.7719C91.1343 10.7719 92.1305 12.0094 92.1305 13.5C92.1305 14.9625 91.1343 16.2 89.64 16.2Z" fill="#171E44"></path><path d="M105.641 20.9531C109.73 20.9531 112.85 17.5781 112.85 13.4719C112.85 9.39375 109.73 6.01875 105.641 6.01875C101.551 6.01875 98.4314 9.39375 98.4314 13.4719C98.4314 17.5781 101.551 20.9531 105.641 20.9531ZM105.641 16.2C104.146 16.2 103.15 14.9625 103.15 13.5C103.15 12.0094 104.146 10.7719 105.641 10.7719C107.135 10.7719 108.131 12.0094 108.131 13.5C108.131 14.9625 107.135 16.2 105.641 16.2Z" fill="#171E44"></path><path d="M120.199 20.5312V15.2719H121.143C121.222 15.4688 121.353 15.6938 121.484 15.8906L124.63 20.5312H130.161L125.128 13.4438L130.187 6.46875H124.604L121.484 10.9688C121.327 11.1656 121.222 11.3906 121.117 11.6156H120.199V0H115.481V20.5312H120.199Z" fill="#171E44"></path><path d="M137.102 20.9812C140.3 20.9812 143 19.0688 143 16.1156C143 10.8281 136.079 12.4313 136.079 10.6875C136.079 10.2656 136.446 9.95625 137.128 9.95625C138.019 9.95625 138.91 10.4625 139.199 11.3063L142.607 9.225C141.847 7.65 140.143 6.01875 137.023 6.01875C133.458 6.01875 131.36 8.15625 131.36 10.8C131.36 16.2563 138.281 14.5125 138.281 16.2281C138.281 16.6781 137.836 17.0438 136.866 17.0438C135.686 17.0438 134.978 16.5938 134.506 15.6938L131.098 17.7469C132.225 19.8844 134.139 20.9812 137.102 20.9812Z" fill="#171E44"></path></svg>